<?xml version="1.0" encoding="iso-8859-1"?>
<!-- Generator: Adobe Illustrator 21.0.0, SVG Export Plug-In . SVG Version: 6.00 Build 0)  -->
<svg version="1.1" id="Capa_1" xmlns="http://www.w3.org/2000/svg" xmlns:xlink="http://www.w3.org/1999/xlink" x="0px" y="0px"
	 viewBox="0 0 512 512" style="enable-background:new 0 0 512 512;" xml:space="preserve">
<circle style="fill:#FF432E;" cx="256" cy="256" r="256"/>
<path style="fill:#DB0404;" d="M511.28,275.28L389.333,153.333L122.667,421.5l86.142,86.142C224.106,510.493,239.876,512,256,512
	C390.899,512,501.422,407.659,511.28,275.28z"/>
<polygon style="fill:#FFFFFF;" points="311,75 122.667,75 122.667,421.5 389.333,421.5 389.333,153.333 "/>
<polygon style="fill:#F2F6FC;" points="389.333,153.333 311,75 255.571,75 255.571,421.5 389.333,421.5 "/>
<circle style="fill:#4A7AFF;" cx="256" cy="272" r="105.67"/>
<path style="fill:#2864F0;" d="M256,166.333c-0.143,0-0.285,0.005-0.429,0.006v211.322c0.143,0,0.285,0.005,0.429,0.005
	c58.358,0,105.667-47.308,105.667-105.667S314.358,166.333,256,166.333z"/>
<polygon style="fill:#DCE1EB;" points="311,153.333 389.333,153.333 311,75 "/>
<path style="fill:#BFE1FF;" d="M256,304.374L256,304.374c-12.15,0-22-9.85-22-22v-72.791c0-12.15,9.85-22,22-22l0,0
	c12.15,0,22,9.85,22,22v72.791C278,294.525,268.15,304.374,256,304.374z"/>
<path style="fill:#A3D4FF;" d="M256,187.583c-0.144,0-0.286,0.008-0.429,0.011v116.769c0.143,0.003,0.285,0.011,0.429,0.011
	c12.15,0,22-9.85,22-22v-72.791C278,197.433,268.15,187.583,256,187.583z"/>
<path style="fill:#BFE1FF;" d="M256,359L256,359c-12.15,0-22-9.85-22-22l0,0c0-12.15,9.85-22,22-22l0,0c12.15,0,22,9.85,22,22l0,0
	C278,349.15,268.15,359,256,359z"/>
<path style="fill:#A3D4FF;" d="M256,315c-0.144,0-0.286,0.008-0.429,0.011v43.979c0.143,0.003,0.285,0.011,0.429,0.011
	c12.15,0,22-9.85,22-22l0,0C278,324.85,268.15,315,256,315z"/>
<g>
</g>
<g>
</g>
<g>
</g>
<g>
</g>
<g>
</g>
<g>
</g>
<g>
</g>
<g>
</g>
<g>
</g>
<g>
</g>
<g>
</g>
<g>
</g>
<g>
</g>
<g>
</g>
<g>
</g>
</svg>
